<?xml version="1.0" standalone="no"?>
<!DOCTYPE svg PUBLIC "-//W3C//DTD SVG 20010904//EN"
 "http://www.w3.org/TR/2001/REC-SVG-20010904/DTD/svg10.dtd">
<svg version="1.0" xmlns="http://www.w3.org/2000/svg"
 width="196.000000pt" height="218.000000pt" viewBox="0 0 196.000000 218.000000"
 preserveAspectRatio="xMidYMid meet">
<metadata>
Created by potrace 1.16, written by Peter Selinger 2001-2019
</metadata>
<g transform="translate(0.000000,218.000000) scale(0.100000,-0.100000)"
fill="#000000" stroke="none">
<path d="M914 1955 c-39 -47 -60 -53 -87 -24 l-22 23 -14 -36 c-17 -39 -89
-92 -113 -83 -28 11 -68 -13 -68 -40 0 -33 -24 -32 -39 2 -12 25 -14 26 -25
11 -7 -10 -25 -22 -40 -28 -19 -7 -26 -15 -22 -25 3 -8 1 -15 -4 -15 -6 0 -10
-6 -10 -13 0 -7 -11 -28 -25 -47 -14 -19 -23 -41 -20 -50 3 -9 -1 -24 -9 -35
-8 -12 -11 -34 -8 -61 3 -30 -1 -54 -15 -81 -35 -70 -47 -118 -35 -151 6 -17
8 -48 5 -69 -4 -30 -1 -42 15 -56 12 -11 19 -24 17 -30 -3 -7 7 -20 21 -30 24
-18 26 -18 45 -1 10 9 19 22 19 28 0 6 9 31 20 55 16 35 23 41 34 32 26 -22
29 -62 6 -86 -30 -32 -24 -76 13 -93 25 -12 27 -17 23 -55 -2 -23 -5 -46 -5
-50 -1 -5 -11 -7 -22 -5 -15 2 -31 23 -53 65 -17 34 -34 62 -38 62 -16 2 -7
-59 13 -94 16 -27 19 -39 10 -48 -12 -12 -15 -38 -3 -36 21 4 30 -3 36 -26 3
-13 18 -37 32 -52 42 -45 72 -97 79 -139 4 -22 16 -63 28 -92 18 -46 27 -56
73 -78 36 -17 54 -33 58 -50 4 -13 11 -24 16 -24 6 0 10 -7 10 -16 0 -8 14
-42 32 -75 l32 -60 68 7 c58 6 72 4 88 -11 11 -10 20 -24 20 -30 0 -7 6 -17
13 -23 9 -8 39 5 112 48 152 88 210 134 234 183 29 59 27 74 -9 82 l-31 7 26
46 c38 67 57 146 44 180 -6 15 -7 43 -3 62 4 19 8 65 9 101 1 36 8 76 15 89
13 25 97 136 130 175 20 23 44 127 37 157 -3 10 1 34 8 51 19 46 9 183 -15
214 -10 13 -16 32 -13 42 6 23 -33 39 -50 22 -18 -18 -36 -13 -72 22 -26 25
-31 36 -24 50 7 12 6 17 -3 17 -7 0 -37 30 -67 65 -49 60 -55 64 -71 50 -15
-14 -21 -12 -64 16 -41 27 -53 31 -92 25 -26 -3 -44 -2 -44 4 0 14 -76 12
-100 -2 -15 -10 -23 -9 -39 6 -12 11 -21 27 -21 38 0 27 -13 22 -46 -17z m17
-579 c-7 -8 -24 -17 -39 -21 -26 -6 -62 -32 -62 -44 0 -17 46 -7 72 14 45 38
93 29 86 -16 -2 -17 -10 -25 -30 -27 -31 -4 -37 -15 -31 -59 3 -20 12 -35 24
-38 49 -16 166 48 154 84 -7 23 38 66 60 57 19 -7 42 -58 49 -112 4 -21 9 -53
12 -70 4 -24 0 -37 -19 -60 -25 -28 -25 -29 -46 -10 -20 18 -23 18 -64 2 -57
-21 -57 -21 -57 19 0 19 -5 35 -10 35 -15 0 -59 -52 -60 -70 -1 -23 -25 -89
-38 -102 -7 -7 -12 -29 -12 -50 0 -37 -1 -38 -36 -38 -36 0 -89 31 -89 53 0 7
-11 11 -23 10 -14 -2 -21 1 -17 7 14 23 -9 70 -56 119 -44 45 -49 55 -49 94 0
37 6 51 38 85 20 23 57 64 80 91 44 50 58 57 136 60 32 1 36 -1 27 -13z"/>
<path d="M519 405 c-29 -16 -49 -60 -49 -108 0 -63 146 -169 250 -183 l55 -7
-57 54 c-42 40 -67 75 -93 131 -19 42 -35 88 -35 102 0 20 -5 26 -22 26 -13
-1 -35 -7 -49 -15z"/>
</g>
</svg>
